<?xml version="1.0" encoding="UTF-8" standalone="no" ?>
<!DOCTYPE svg PUBLIC "-//W3C//DTD SVG 1.1//EN" "http://www.w3.org/Graphics/SVG/1.1/DTD/svg11.dtd">
<svg xmlns="http://www.w3.org/2000/svg" xmlns:xlink="http://www.w3.org/1999/xlink" version="1.1" width="1080" height="1080" viewBox="0 0 1080 1080" xml:space="preserve">
<desc>Created with Fabric.js 5.2.4</desc>
<defs>
</defs>
<g transform="matrix(1 0 0 1 540 540)" id="5bea27d0-ad09-4e04-ad42-30f70b5126a7"  >
<rect style="stroke: none; stroke-width: 1; stroke-dasharray: none; stroke-linecap: butt; stroke-dashoffset: 0; stroke-linejoin: miter; stroke-miterlimit: 4; fill: rgb(255,255,255); fill-rule: nonzero; opacity: 1; visibility: hidden;" vector-effect="non-scaling-stroke"  x="-540" y="-540" rx="0" ry="0" width="1080" height="1080" />
</g>
<g transform="matrix(1 0 0 1 540 540)" id="85f8e4f6-87bb-4f79-b758-5756ffc1fe5f"  >
</g>
<g transform="matrix(0.43 0 0 0.43 540 540)"  >
<g style="" vector-effect="non-scaling-stroke"   >
		<g transform="matrix(3.78 0 0 3.78 -465.68 -0.65)"  >
<path style="stroke: none; stroke-width: 1; stroke-dasharray: none; stroke-linecap: butt; stroke-dashoffset: 0; stroke-linejoin: miter; stroke-miterlimit: 4; fill: rgb(255,255,255); fill-rule: nonzero; opacity: 1;" vector-effect="non-scaling-stroke"  transform=" translate(-46.12, -26.78)" d="M 29.658 8.563 C 31.315 6.5600000000000005 32.489000000000004 3.833 32.489000000000004 1.0710000000000006 C 32.49205191001408 0.7116687223119638 32.457192382452654 0.3530178137473472 32.385000000000005 0.001000000000000778 C 29.692000000000004 0.10500000000000055 26.446000000000005 1.7960000000000005 24.513000000000005 4.075 C 22.994000000000007 5.801 21.578000000000007 8.563 21.578000000000007 11.326 C 21.57941852145 11.651046629935234 21.614268591578966 11.975085262768994 21.682000000000006 12.293 C 21.92102620605693 12.338276947178255 22.163724151171383 12.361375096437424 22.407000000000007 12.362000000000002 C 24.824000000000005 12.362000000000002 27.86200000000001 10.739000000000003 29.65800000000001 8.564000000000002 z M 31.557000000000002 12.948 C 27.517000000000003 12.948 24.237000000000002 15.399000000000001 22.131 15.399000000000001 C 19.887 15.399000000000001 16.951999999999998 13.086 13.43 13.086 C 6.767 13.086 0 18.61 0 29.003 C 0 35.494 2.486 42.33 5.593 46.75 C 8.251999999999999 50.479 10.565000000000001 53.552 13.914 53.552 C 17.229 53.552 18.679 51.342 22.787 51.342 C 26.965 51.342 27.897 53.483 31.557 53.483 C 35.182 53.483 37.599 50.168 39.878 46.888 C 42.433 43.125 43.503 39.464999999999996 43.538 39.292 C 43.330999999999996 39.223 36.391 36.392 36.391 28.451 C 36.391 21.58 41.846 18.506999999999998 42.157 18.266 C 38.565999999999995 13.086999999999998 33.07599999999999 12.948999999999998 31.556999999999995 12.948999999999998 z M 65.969 53.172 L 74.497 53.172 L 92.244 3.35 L 83.923 3.35 L 70.319 44.574 L 70.146 44.574 L 56.543 3.35 L 48.222 3.35 z" stroke-linecap="round" />
</g>
		<g transform="matrix(3.78 0 0 3.78 -262 3.65)"  >
<path style="stroke: none; stroke-width: 1; stroke-dasharray: none; stroke-linecap: butt; stroke-dashoffset: 0; stroke-linejoin: miter; stroke-miterlimit: 4; fill: rgb(255,255,255); fill-rule: nonzero; opacity: 1;" vector-effect="non-scaling-stroke"  transform=" translate(-100.01, -27.91)" d="M 100.012 11.256 C 102.463 11.256 104.362 9.323 104.362 6.9750000000000005 C 104.362 4.593 102.463 2.6590000000000007 100.012 2.6590000000000007 C 97.595 2.6590000000000007 95.662 4.5920000000000005 95.662 6.9750000000000005 C 95.662 9.323 97.59500000000001 11.256 100.012 11.256 z M 96.283 53.171 L 103.741 53.171 L 103.741 16.849 L 96.283 16.849 z" stroke-linecap="round" />
</g>
		<g transform="matrix(3.78 0 0 3.78 -173.35 30.53)"  >
<path style="stroke: none; stroke-width: 1; stroke-dasharray: none; stroke-linecap: butt; stroke-dashoffset: 0; stroke-linejoin: miter; stroke-miterlimit: 4; fill: rgb(255,255,255); fill-rule: nonzero; opacity: 1;" vector-effect="non-scaling-stroke"  transform=" translate(-123.47, -35.03)" d="M 123.675 53.897 C 132.238 53.897 138.452 49.339 138.452 42.71 L 138.452 42.675000000000004 C 138.452 37.461000000000006 135.621 34.527 128.198 32.800000000000004 L 122.29400000000001 31.453000000000003 C 118.39200000000001 30.521000000000004 116.90800000000002 29.002000000000002 116.90800000000002 26.757000000000005 L 116.90800000000002 26.723000000000006 C 116.90800000000002 23.823000000000008 119.42800000000001 21.924000000000007 123.43400000000001 21.924000000000007 C 127.64600000000002 21.924000000000007 130.132 24.134000000000007 130.58100000000002 27.310000000000006 L 130.616 27.552000000000007 L 137.625 27.552000000000007 L 137.59 27.138000000000005 C 137.21 20.958000000000006 132.031 16.158000000000005 123.434 16.158000000000005 C 115.079 16.158000000000005 109.416 20.612000000000005 109.416 27.103000000000005 L 109.416 27.138000000000005 C 109.416 32.42100000000001 112.834 35.73500000000001 119.739 37.32300000000001 L 125.678 38.67000000000001 C 129.57999999999998 39.60200000000001 130.892 40.94900000000001 130.892 43.29700000000001 L 130.892 43.33100000000001 C 130.892 46.26600000000001 128.19899999999998 48.13000000000001 123.71 48.13000000000001 C 119.118 48.13000000000001 116.63199999999999 46.162000000000006 115.94099999999999 42.81300000000001 L 115.87199999999999 42.46800000000001 L 108.48299999999999 42.46800000000001 L 108.51799999999999 42.77900000000001 C 109.27799999999999 49.40800000000001 114.59499999999998 53.89700000000001 123.67499999999998 53.89700000000001 z" stroke-linecap="round" />
</g>
		<g transform="matrix(3.78 0 0 3.78 -81.57 3.65)"  >
<path style="stroke: none; stroke-width: 1; stroke-dasharray: none; stroke-linecap: butt; stroke-dashoffset: 0; stroke-linejoin: miter; stroke-miterlimit: 4; fill: rgb(255,255,255); fill-rule: nonzero; opacity: 1;" vector-effect="non-scaling-stroke"  transform=" translate(-100.01, -27.91)" d="M 100.012 11.256 C 102.463 11.256 104.362 9.323 104.362 6.9750000000000005 C 104.362 4.593 102.463 2.6590000000000007 100.012 2.6590000000000007 C 97.595 2.6590000000000007 95.662 4.5920000000000005 95.662 6.9750000000000005 C 95.662 9.323 97.59500000000001 11.256 100.012 11.256 z M 96.283 53.171 L 103.741 53.171 L 103.741 16.849 L 96.283 16.849 z" stroke-linecap="round" />
</g>
		<g transform="matrix(3.78 0 0 3.78 296.16 6.33)"  >
<path style="stroke: none; stroke-width: 1; stroke-dasharray: none; stroke-linecap: butt; stroke-dashoffset: 0; stroke-linejoin: miter; stroke-miterlimit: 4; fill: rgb(255,255,255); fill-rule: nonzero; opacity: 1;" vector-effect="non-scaling-stroke"  transform=" translate(-247.69, -28.62)" d="M 173.945 53.897 C 184.338 53.897 191.17399999999998 46.714999999999996 191.17399999999998 35.010999999999996 L 191.17399999999998 34.94199999999999 C 191.17399999999998 23.306999999999995 184.26899999999998 16.158999999999992 173.91099999999997 16.158999999999992 C 163.58799999999997 16.158999999999992 156.71699999999998 23.340999999999994 156.71699999999998 34.94199999999999 L 156.71699999999998 35.010999999999996 C 156.71699999999998 46.681 163.51899999999998 53.89699999999999 173.94599999999997 53.89699999999999 z M 173.98 47.647999999999996 C 168.14499999999998 47.647999999999996 164.34699999999998 43.056 164.34699999999998 35.010999999999996 L 164.34699999999998 34.94199999999999 C 164.34699999999998 27.000999999999994 168.17899999999997 22.408999999999992 173.91099999999997 22.408999999999992 C 179.74599999999998 22.408999999999992 183.54399999999998 27.00099999999999 183.54399999999998 34.94199999999999 L 183.54399999999998 35.010999999999996 C 183.54399999999998 43.020999999999994 179.81499999999997 47.647999999999996 173.98 47.647999999999996 z M 195.59199999999998 53.172 L 203.04999999999998 53.172 L 203.04999999999998 32.007 C 203.04999999999998 26.345 206.43399999999997 22.546999999999997 211.682 22.546999999999997 C 216.861 22.546999999999997 219.416 25.619999999999997 219.416 31.074999999999996 L 219.416 53.172 L 226.908 53.172 L 226.908 29.659 C 226.908 21.304 222.31599999999997 16.159 214.33999999999997 16.159 C 208.84999999999997 16.159 205.12099999999998 18.645 203.22199999999998 22.339 L 203.04899999999998 22.339 L 203.04899999999998 16.848999999999997 L 195.59099999999998 16.848999999999997 z M 244.86599999999999 53.172 L 252.6 53.172 L 252.6 36.15 L 263.407 36.15 C 273.178 36.15 279.945 29.485999999999997 279.945 19.75 L 279.945 19.681 C 279.945 9.91 273.178 3.3500000000000014 263.407 3.3500000000000014 L 244.86599999999999 3.3500000000000014 z M 261.47299999999996 9.875999999999998 C 268.20599999999996 9.875999999999998 272.073 13.500999999999998 272.073 19.715999999999998 L 272.073 19.784999999999997 C 272.073 26.033999999999995 268.20599999999996 29.659999999999997 261.47299999999996 29.659999999999997 L 252.6 29.659999999999997 L 252.6 9.875 z M 284.4549999999999 53.172 L 291.91299999999995 53.172 L 291.91299999999995 31.523 C 291.91299999999995 26.102 294.88199999999995 22.96 299.68199999999996 22.96 C 301.13199999999995 22.96 302.44399999999996 23.133 303.03099999999995 23.374000000000002 L 303.03099999999995 16.434 C 302.44399999999996 16.330000000000002 301.51199999999994 16.158 300.44199999999995 16.158 C 296.299 16.158 293.25999999999993 18.817 292.08699999999993 23.063000000000002 L 291.91399999999993 23.063000000000002 L 291.91399999999993 16.848000000000003 L 284.4559999999999 16.848000000000003 z M 321.43799999999993 53.897 C 331.8309999999999 53.897 338.6669999999999 46.714999999999996 338.6669999999999 35.010999999999996 L 338.6669999999999 34.94199999999999 C 338.6669999999999 23.306999999999995 331.76199999999994 16.158999999999992 321.40399999999994 16.158999999999992 C 311.08099999999996 16.158999999999992 304.2099999999999 23.340999999999994 304.2099999999999 34.94199999999999 L 304.2099999999999 35.010999999999996 C 304.2099999999999 46.681 311.01199999999994 53.89699999999999 321.4389999999999 53.89699999999999 z M 321.4719999999999 47.647999999999996 C 315.63699999999994 47.647999999999996 311.83899999999994 43.056 311.83899999999994 35.010999999999996 L 311.83899999999994 34.94199999999999 C 311.83899999999994 27.000999999999994 315.67099999999994 22.408999999999992 321.40299999999996 22.408999999999992 C 327.23799999999994 22.408999999999992 331.03599999999994 27.00099999999999 331.03599999999994 34.94199999999999 L 331.03599999999994 35.010999999999996 C 331.03599999999994 43.020999999999994 327.30699999999996 47.647999999999996 321.4719999999999 47.647999999999996 z" stroke-linecap="round" />
</g>
</g>
</g>
</svg>